#!OML:ASF E:/inclinewalkrobotboard/Project1/Captureday1/Session1/subject1.ASF
:FULLY-SPECIFIED
:DEGREES
113
root 0 0 0 1.8116902215733017 -10.281436597681513 0.9365882688349054
lowerback 0.02127227664085396 -1.582559667693229 -2.686007876435155
upperback -0.525146799734718 -2.0678117784011687 1.8771872297738519
thorax -0.45831410216046253 -1.0294000510217118 3.371710636621251
lowerneck -25.90244378757628 -1.9341073984780908 -7.5505525738488615
upperneck 23.642524884506905 -0.25607491215073763 2.622571723260862
head 12.217611523601164 -0.5981245543336007 2.3127415411269614
rclavicle -2.753305142537797E-15 -1.9167258988851745E-15
rhumerus -30.467859739352196 -0.6814707996421179 -82.42368933530848
rradius 31.970244901353627
rwrist 18.090992723352564
rhand -18.468263993181914 9.34248373841687
rfingers 7.125019999999939
rthumb 7.812994928626509 -20.43465909833755
lclavicle -5.061847676835733E-15 2.3656402192564594E-15
lhumerus -22.103686572321962 -2.226797557565999 92.19320957441698
lradius 61.701378130100906
lwrist 2.270298739675069
lhand -28.307697665594134 20.75736373247721
lfingers 7.125020000000008
lthumb -1.7195562686650954 50.754615576887225
rfemur 12.02976180414393 8.482604564279345 37.569744635367854
rtibia 24.93817889270951
rfoot -22.253995120318578 -6.192791099977292
rtoes -1.5133271188616035
lfemur -32.310665556833655 -2.291387638655398 -9.653390881022009
ltibia 30.255930224103984
lfoot -4.431183652018004 2.9692869531214092
ltoes -2.5085559396959223
114
root 0 0 0 1.8094055110939484 -10.327130538263662 0.938108747398617
lowerback -0.06143896541598837 -1.581387978123023 -2.7067164743401904
upperback -0.5611948011897155 -2.066554826355987 1.8301153830587404
thorax -0.4523897008736907 -1.026292057566362 3.3324909059745025
lowerneck -25.75251342832972 -1.927286831701682 -7.599627384771779
upperneck 24.139537377861032 -0.2486852520217725 2.601511864106802
head 12.374011743869401 -0.6138176662814102 2.319671415283677
rclavicle -2.553362487334958E-15 -2.4086631453891622E-15
rhumerus -30.440823011406692 -0.23617927596040644 -82.29131262453767
rradius 31.921128863660982
rwrist 17.994505059087192
rhand -18.572836929229155 9.405618134740799
rfingers 7.125019999999937
rthumb 7.710866246499031 -20.36933036197869
lclavicle -6.167643312542053E-15 2.323487519406645E-15
lhumerus -21.67514789671402 -1.252637766138899 92.04261377863473
lradius 61.387894177613305
lwrist 2.07295016405351
lhand -28.383850091851187 20.70103890806196
lfingers 7.12502000000001
lthumb -1.79152771771843 50.688948251663355
rfemur 16.04358253852874 7.2644876100505815 34.95110072234755
rtibia 33.57460657475388
rfoot -15.651126309831097 -3.287421357069702
rtoes -6.455407867357809
lfemur -31.12929095839894 -4.755860398271423 -8.845185801863636
ltibia 22.557311325828906
lfoot -3.8887017391009913 4.018247739223586
ltoes -2.6273928144598724
115
root 0 0 0 1.8035969857841898 -10.368793136801695 0.9360975757707866
lowerback -0.11842531862229633 -1.5858797154464206 -2.718766654333406
upperback -0.584344325778963 -2.0715382151407393 1.7963325511299435
thorax -0.4462819795165929 -1.027443804223743 3.30391546922263
lowerneck -25.61119846521685 -1.9094944928112034 -7.637398613368789
upperneck 24.6039871697473 -0.2198668108512981 2.5576844757582458
head 12.518509902086056 -0.6208294081360439 2.3192684673232984
rclavicle -3.6773196737208995E-15 -2.174189738765436E-15
rhumerus -30.54625994198254 -0.25212915218019916 -82.11599148231302
rradius 31.791697142169014
rwrist 18.008174646413458
rhand -18.584245305649112 9.450078893939654
rfingers 7.125019999999934
rthumb 7.699645783089452 -20.324268185187087
lclavicle -7.702420369787955E-15 2.650039560914309E-15
lhumerus -21.252223576934835 -0.6977666844563197 91.86596916314048
lradius 61.237768381784136
lwrist 1.9570757835254051
lhand -28.45585021154859 20.717356857106477
lfingers 7.12502000000001
lthumb -1.8567287543037034 50.69762183570575
rfemur 13.424346119456573 5.459094304413376 31.622145130223004
rtibia 43.16948527476993
rfoot -8.297083574425 -0.6953482089211507
rtoes -5.469241195809416
lfemur -29.59916587078736 -4.732906063878451 -10.022381223790697
ltibia 23.71859862825086
lfoot -3.136280638589973 2.636599007262147
ltoes -1.5071175023907415
116
root 0 0 0 1.8024839112202669 -10.445083999569396 0.9301718274395847
lowerback -0.18636127722477314 -1.6045388167776726 -2.723221571482685
upperback -0.590332535619644 -2.0950110898852503 1.7559466660966851
thorax -0.4132414384653531 -1.039023438152437 3.2652258871933437
lowerneck -25.46006011872032 -1.8836118211113995 -7.687153481877616
upperneck 25.252884947590445 -0.16916488636991522 2.474909753088375
head 12.724625175441776 -0.6270175869016192 2.311679854438763
rclavicle -5.195806194022913E-15 -1.3615272408805135E-15
rhumerus -30.72878419609433 -0.5408239696409156 -81.94435030318039
rradius 31.640249869819247
rwrist 18.11552475018267
rhand -18.53027635328568 9.44899039830128
rfingers 7.125019999999934
rthumb 7.752454855930664 -20.327924728527037
lclavicle -8.075619316515422E-15 3.033544626060364E-15
lhumerus -20.66356758664462 -0.16746605203352338 91.64808056309221
lradius 61.1092177348217
lwrist 1.7692589020318943
lhand -28.602086914412318 20.709013524520863
lfingers 7.125020000000008
lthumb -1.9937433189626663 50.677077726168534
rfemur 5.422569290389989 3.574129164826072 26.43959201498
rtibia 56.114979631839006
rfoot 2.06357097565777 1.066141064465226
rtoes 0.15217752294894815
lfemur -25.819792706561344 -4.186746501811449 -13.457619108771041
ltibia 29.059954608907564
lfoot -1.8782417487825525 -1.1524927080005183
ltoes 2.1505277880928055
117
root 0 0 0 1.8182322281938086 -10.555741729630997 0.9183393296512522
lowerback -0.2619695916217091 -1.6436145038552592 -2.715341578169371
upperback -0.5541586860964924 -2.145870456985925 1.7048993398739678
thorax -0.32740527664601016 -1.0666291587760766 3.208312497519973
lowerneck -25.296100231083976 -1.8566524542423366 -7.759531452156952
upperneck 26.17831225681244 -0.10932264912703837 2.3564169783946065
head 13.019933900928056 -0.638104017211496 2.2994856770018615
rclavicle -7.261616769068562E-15 1.2079184482252907E-16
rhumerus -31.06508029186138 -1.3234305829483475 -81.70382501616425
rradius 31.39200851358905
rwrist 18.36340034084543
rhand -18.36068303227155 9.407745481279424
rfingers 7.125019999999933
rthumb 7.917331022577739 -20.37191700756935
lclavicle -8.724426505675376E-15 3.3625432374756015E-15
lhumerus -20.41084513283575 -0.09846225760073857 91.53510680195203
lradius 61.08301949305397
lwrist 1.7713104765284262
lhand -28.620441532712917 20.71734098971437
lfingers 7.125020000000006
lthumb -2.0093779427333676 50.68358276916832
rfemur -5.3548599420531175 2.260803135291887 24.035274070697678
rtibia 64.24744144932296
rfoot 9.675557750379758 -0.7929629385865073
rtoes 9.01268651311852
lfemur -20.858550936369706 -3.2873156444305756 -17.73643283483336
ltibia 35.175948688167544
lfoot -1.865050086322487 -4.691528971173165
ltoes 6.089841635158731
118
root 0 0 0 1.835782918664303 -10.60817902696625 0.9055559887387058
lowerback -0.2611381653043192 -1.6739780252374359 -2.6938373392152966
upperback -0.4937328176022863 -2.1861483474254073 1.6854412669787042
thorax -0.25832272205382434 -1.0897502544093292 3.1764485054665412
lowerneck -25.236927480851016 -1.8365682789375861 -7.783568616134954
upperneck 26.639864440270344 -0.06882872886165381 2.271050377849697
head 13.164338670537958 -0.6377343422812829 2.2835079693684115
rclavicle -7.249852301029615E-15 1.691133149350482E-15
rhumerus -31.52378051419611 -2.613085656808903 -81.39087025070052
rradius 31.039691816178046
rwrist 18.696912823680336
rhand -18.077572334834173 9.372110710172185
rfingers 7.125019999999928
rthumb 8.19054447884602 -20.40236697280796
lclavicle -8.342877046659037E-15 4.133237776233289E-15
lhumerus -21.164215268364778 -1.1081691512230099 91.68979944589728
lradius 61.39323648952165
lwrist 2.293675195585677
lhand -28.24377810911761 20.99036613986666
lfingers 7.125020000000007
lthumb -1.6468513967719778 50.98560518312548
rfemur -9.83612875035688 1.2448117510296672 23.71183144588984
rtibia 68.75478857897255
rfoot 6.69817473608205 -3.371258267735395
rtoes 11.209424496101168
lfemur -16.758731717755506 -2.8526339675798544 -21.24803784420378
ltibia 32.90566657698907
lfoot -5.11402218175347 -3.240324445599178
ltoes 8.625623421275858
119
root 0 0 0 1.8626739163893296 -10.627848255960112 0.8873708398374465
lowerback -0.239274530403071 -1.6949947479874499 -2.6774677882431557
upperback -0.4290234909485868 -2.2151298327732523 1.678187641208739
thorax -0.1958077139755856 -1.1072984581184966 3.1594044091274136
lowerneck -25.110824714084977 -1.8030247361918694 -7.808677304153236
upperneck 27.03459923720694 -0.021863680397790186 2.2121505950379805
head 13.274723748401987 -0.62916679898665 2.277832221138314
rclavicle -4.986932099271974E-15 2.0434859886908853E-15
rhumerus -31.855019500866515 -3.6716624617181877 -81.21536706511488
rradius 30.814174463373767
rwrist 18.983445117525765
rhand -17.835239002243465 9.309271397352672
rfingers 7.1250199999999255
rthumb 8.423827282671004 -20.458140004171234
lclavicle -6.950445250668131E-15 4.21215230858129E-15
lhumerus -21.711366887139395 -2.1087327236670728 91.76975473830905
lradius 61.81312645591726
lwrist 2.674130563945453
lhand -28.005892348021696 21.294220686910396
lfingers 7.125020000000007
lthumb -1.4173966590678555 51.31102803815019
rfemur -17.97945027714868 -0.40872344020268336 21.568238043509297
rtibia 72.45026357281984
rfoot 0.2402868644822007 -5.753346920107371
rtoes 7.93915525135576
lfemur -12.3035925080531 -2.983493951711133 -24.603440233328868
ltibia 27.688159573027797
lfoot -11.117366858815602 0.19163368216788967
ltoes 10.26621850521797
120
root 0 0 0 1.9066060322959397 -10.655337550114345 0.8814695094716387
lowerback -0.23600778207672657 -1.722438500808463 -2.6745063033061474
upperback -0.35980361164285324 -2.2525524656266738 1.6749070858640218
thorax -0.1148893815451264 -1.1294658680511662 3.1538303303545283
lowerneck -25.05619345451648 -1.7841244021798641 -7.854606946066332
upperneck 27.327635367814075 0.007723565238973329 2.200632758171335
head 13.358856307375813 -0.6215848280170408 2.288571793495474
rclavicle -3.2038764907273757E-15 1.602663884396543E-15
rhumerus -32.08125621798627 -3.8247198605027566 -80.92674947074612
rradius 30.60264303133605
rwrist 19.09598053923235
rhand -17.796153743693857 9.311615274311126
rfingers 7.1250199999999255
rthumb 8.461402073333378 -20.456783254011597
lclavicle -6.557263756621631E-15 3.788305234980527E-15
lhumerus -22.320824247926076 -3.874797887042683 91.8669486149821
lradius 62.50659418187273
lwrist 3.201496177045118
lhand -27.782656802284293 21.679798525217283
lfingers 7.125020000000004
lthumb -1.2044034262592396 51.7198159281318
rfemur -27.27642970706295 -1.2751235728425652 19.967379759692868
rtibia 68.32503311292136
rfoot -4.424608231958885 -7.329975781591651
rtoes 3.7550189187520986
lfemur -3.543738228678208 -3.5540334823069637 -28.097531249239232
ltibia 21.555724987656628
lfoot -19.37462384096826 2.480530698581463
ltoes 7.292394719192934
